<svg xmlns="http://www.w3.org/2000/svg" xmlns:xlink="http://www.w3.org/1999/xlink" version="1.1" id="Layer_1" x="0px" y="0px" width="100px" height="100px" viewBox="0 0 100 100" enable-background="new 0 0 100 100" xml:space="preserve">
<path fill="#FFFFFF" d="M2.632,31.342h36.842c1.453,0,2.631,1.178,2.631,2.631v59.65c0,1.453-1.178,2.631-2.631,2.631H2.632  C1.178,96.254,0,95.076,0,93.623v-59.65C0,32.52,1.178,31.342,2.632,31.342z"/>
<g>
	<path fill="none" d="M-301.672-112.728c22.106-0.714,16.44-18.097,14.91-21.949c-18.198-23.661-38.633-47.276-52.019-53.753   c-29.176-14.116-64.265-1.907-78.38,27.265c-0.681,1.407-1.286,2.83-1.84,4.261v5.596c5.187,13.326,15.216,24.803,29.105,31.523   c15.488,7.494,54.822,8.148,88.316,7.115L-301.672-112.728z"/>
	<path fill="none" d="M-95.22-189.429c-13.386,6.476-33.82,30.092-52.019,53.753c-1.53,3.853-7.196,21.235,14.91,21.949   l-0.093,0.058c33.494,1.034,72.828,0.379,88.315-7.115c14.854-7.187,25.295-19.814,30.118-34.324   c-0.793-2.379-1.73-4.737-2.852-7.056C-30.955-191.337-66.043-203.546-95.22-189.429z"/>
</g>
<path fill="#FFFFFF" d="M60.526,31.342h36.842c1.454,0,2.631,1.178,2.631,2.631v59.65c0,1.453-1.178,2.631-2.631,2.631H60.526  c-1.453,0-2.631-1.178-2.631-2.631v-59.65C57.895,32.52,59.073,31.342,60.526,31.342z"/>
<path fill="#FFFFFF" d="M-84.667-170"/>
<g>
	<path fill="none" d="M85.116,15.348c-2.477-5.118-8.632-7.26-13.751-4.784c-2.349,1.136-5.933,5.28-9.126,9.431   c-0.269,0.676-1.263,3.726,2.616,3.851l-0.016,0.011c5.876,0.181,12.776,0.066,15.494-1.249c2.606-1.261,4.438-3.476,5.284-6.021   C85.477,16.168,85.313,15.755,85.116,15.348z"/>
	<path fill="none" d="M28.635,10.74c-5.119-2.477-11.274-0.335-13.751,4.783c-0.12,0.247-0.226,0.497-0.323,0.748v0.982   c0.91,2.338,2.669,4.352,5.106,5.53c2.717,1.315,9.618,1.43,15.494,1.249l-0.016-0.01c3.878-0.125,2.884-3.175,2.616-3.851   C34.568,16.02,30.984,11.876,28.635,10.74z"/>
	<path fill="#FFFFFF" d="M86.132,20.021c0-0.038,0.008-0.076,0.009-0.114l-0.009-0.005v-7.039l-0.04-0.535l-0.007,0.045   c-0.111-1.189-0.419-2.378-0.969-3.517c-2.477-5.118-8.632-7.26-13.751-4.783c-3.854,1.865-11.04,11.828-14.354,16.634l-0.009-0.02   c0,0-1.939,2.323-5.15,2.584h-3.88c-2.721-0.221-4.528-1.922-5.017-2.437C39.628,16.012,32.477,6.107,28.635,4.249   c-5.119-2.477-11.274-0.334-13.751,4.783c-0.554,1.145-0.874,2.342-0.983,3.538H13.86v0.727c-0.002,0.123-0.002,0.246,0,0.369v6.2   c-0.001,0.083-0.001,0.167,0,0.25v0.172h0.003c0.104,3.719,2.224,7.253,5.805,8.985c4.177,2.021,18.246,1.207,23.271,0.839h0.569   v65.088c0,0.969,0.786,1.754,1.754,1.754h9.474c0.969,0,1.755-0.786,1.755-1.754V29.938h0.569   c5.026,0.367,19.095,1.182,23.272-0.84c3.545-1.715,5.641-5.197,5.784-8.874l0.016,0.019V20.021z M35.146,24.021l0.016,0.01   c-5.876,0.181-12.777,0.066-15.494-1.249c-2.267-1.096-3.946-2.914-4.903-5.044c-0.072-0.161-0.14-0.323-0.204-0.486v-0.982   c0.097-0.251,0.203-0.5,0.323-0.748c2.477-5.118,8.632-7.26,13.751-4.783c2.349,1.136,5.933,5.279,9.126,9.43   C38.029,20.846,39.024,23.896,35.146,24.021z M80.333,22.608c-2.717,1.314-9.618,1.43-15.494,1.249l0.016-0.011   c-3.878-0.125-2.884-3.175-2.616-3.851c3.193-4.151,6.777-8.294,9.126-9.431c5.119-2.477,11.274-0.334,13.751,4.784   c0.197,0.407,0.361,0.82,0.5,1.238C84.77,19.132,82.938,21.347,80.333,22.608z"/>
</g>
</svg>