<svg xmlns="http://www.w3.org/2000/svg" xmlns:xlink="http://www.w3.org/1999/xlink" version="1.1" id="Layer_1" x="0px" y="0px" width="100px" height="82.639px" viewBox="0 0 100 82.639" enable-background="new 0 0 100 82.639" xml:space="preserve">
<circle fill ="#646669" cx="50" cy="70.844" r="11.794"/>
<path fill ="#646669" d="M49.997,0C31.91,0,14.91,7.037,2.139,19.822c-2.852,2.852-2.852,7.467,0,10.311c1.426,1.427,3.292,2.138,5.156,2.138  c1.866,0,3.732-0.711,5.16-2.138C22.476,20.108,35.81,14.582,49.997,14.582c14.188,0,27.521,5.526,37.552,15.551  c2.849,2.855,7.459,2.855,10.314,0c2.849-2.852,2.849-7.459,0-10.311C85.078,7.034,68.084,0,49.997,0z"/>
<path fill ="#646669" d="M49.997,28.96c-12.269,0-23.789,4.779-32.447,13.442c-2.846,2.847-2.846,7.47,0.006,10.322  c2.851,2.832,7.47,2.841,10.321-0.011C33.776,46.8,41.634,43.556,50,43.556s16.239,3.256,22.147,9.157  c1.427,1.427,3.295,2.141,5.163,2.141c1.865,0,3.735-0.714,5.154-2.141c2.849-2.849,2.849-7.47,0-10.311  C73.788,33.738,62.256,28.96,49.997,28.96z"/>
</svg>