<svg xmlns="http://www.w3.org/2000/svg" xmlns:xlink="http://www.w3.org/1999/xlink" version="1.0" x="0px" y="0px" width="100px" height="100px" viewBox="0 0 100 100" overflow="" enable-background="new 0 0 100 100" xml:space="preserve">
    <path fill="#FFFFFF" d="M69.733,30.15c-2.073-1.289-4.516-2.031-7.129-2.031c-2.09,0-4.066,0.472-5.834,1.323 c-0.375,0.18-0.742,0.384-1.1,0.602h-0.017l-16.789,9.294l-8.369-5.875c-0.127-0.094-0.257-0.181-0.385-0.271L29.975,33.1 l0.008,0.016c-1.658-1.058-3.591-1.704-5.669-1.819c0.146-0.714,0.229-1.449,0.229-2.198c0-5.957-4.833-10.791-10.791-10.791 c-5.956,0-10.785,4.834-10.785,10.791c0,5.952,4.829,10.784,10.785,10.784c0.137,0,0.277-0.021,0.421-0.028h9.495 c0.873,0,1.658,0.361,2.229,0.923l4.797,4.801l-4.797,4.802c-0.571,0.569-1.356,0.918-2.229,0.918h-9.495 c-0.144-0.004-0.284-0.02-0.421-0.02c-5.956,0-10.785,4.832-10.785,10.786c0,1.159,0.184,2.27,0.524,3.314 c-1.4,0.73-2.359,2.196-2.359,3.879c0,2.419,1.959,4.373,4.376,4.373c0.988,0,1.897-0.325,2.632-0.882v0.003 c0.433-0.333,0.979-0.536,1.572-0.536c0.315,0,0.619,0.058,0.895,0.16l0.009-0.004c0.992,0.308,2.042,0.476,3.136,0.476 c5.958,0,10.791-4.83,10.791-10.783c0-0.755-0.084-1.494-0.229-2.203c2.078-0.107,4.012-0.756,5.667-1.813l-0.006,0.016l0.145-0.104 c0.12-0.08,0.239-0.165,0.349-0.249L69.733,30.15z M13.752,33.87c-2.658,0-4.819-2.157-4.819-4.82c0-2.658,2.161-4.818,4.819-4.818 c2.66,0,4.816,2.16,4.816,4.818C18.568,31.713,16.412,33.87,13.752,33.87z M37.25,42.489c1.638,0,2.967,1.326,2.967,2.962 c0,1.64-1.329,2.967-2.967,2.967s-2.961-1.328-2.961-2.967C34.289,43.814,35.611,42.489,37.25,42.489z M13.752,66.848 c-2.658,0-4.819-2.156-4.819-4.818c0-2.66,2.161-4.816,4.819-4.816c2.66,0,4.816,2.156,4.816,4.816 C18.568,64.691,16.412,66.848,13.752,66.848z"/>
    <path fill="#FFFFFF" d="M52.327,49.087l-8.26,5.799l11.587,6.231h0.015c0.359,0.214,0.727,0.42,1.102,0.604 c1.768,0.845,3.744,1.314,5.834,1.314c2.613,0,5.056-0.738,7.129-2.023L52.327,49.087z"/>
	<rect fill="#FFFFFF" x="67.734" y="38.647" width="12.505" height="6.253"/>
	<rect fill="#FFFFFF" x="67.734" y="76.164" width="12.505" height="6.253"/>
	<rect fill="#FFFFFF" x="48.975" y="76.164" width="12.509" height="6.253"/>
	<rect fill="#FFFFFF" x="92.747" y="57.406" width="6.253" height="6.253"/>
	<polygon fill="#FFFFFF" points="86.496,38.647 86.496,44.9 92.747,44.9 92.747,51.151 99,51.151 99,38.647 "/>
	<polygon fill="#FFFFFF" points="92.747,76.164 86.496,76.164 86.496,82.417 99,82.417 99,69.915 92.747,69.915 "/>
	<polygon fill="#FFFFFF" points="36.471,69.915 30.218,69.915 30.218,82.417 42.722,82.417 42.722,76.164 36.471,76.164 "/>
</svg>